<?xml version="1.0" standalone="no"?>
<!DOCTYPE svg PUBLIC "-//W3C//DTD SVG 20010904//EN"
 "http://www.w3.org/TR/2001/REC-SVG-20010904/DTD/svg10.dtd">
<svg version="1.0" xmlns="http://www.w3.org/2000/svg"
 width="708.000000pt" height="708.000000pt" viewBox="0 0 708.000000 708.000000"
 preserveAspectRatio="xMidYMid meet">
<metadata>
Created by potrace 1.14, written by Peter Selinger 2001-2017
</metadata>
<g transform="translate(0.000000,708.000000) scale(0.100000,-0.100000)"
fill="#000000" stroke="none">
<path d="M1048 4589 l-1048 -1049 1049 -1049 1049 -1049 404 404 404 404 405
-405 404 -404 1048 1047 c576 576 1046 1050 1045 1054 -2 4 -473 478 -1048
1053 l-1045 1045 -405 -405 -405 -405 -404 405 c-222 223 -404 405 -405 404
-1 0 -472 -473 -1048 -1050z m1258 66 c113 -113 204 -210 202 -215 -2 -6 -203
-210 -447 -455 l-445 -445 451 -451 451 -451 -204 -204 c-112 -112 -209 -204
-216 -204 -7 0 -307 295 -667 655 l-654 655 659 660 c362 363 660 660 661 660
2 0 95 -92 209 -205z m2081 -464 c353 -354 643 -647 643 -651 0 -4 -296 -303
-657 -664 l-656 -657 -211 210 -210 210 444 445 c245 245 445 450 445 456 0 6
-200 211 -445 456 l-444 445 209 209 c174 174 211 207 224 197 8 -7 304 -302
658 -656z m-1227 -391 c137 -138 250 -255 250 -260 0 -6 -113 -123 -251 -261
l-252 -251 -256 256 -256 256 255 255 c140 140 256 255 257 255 2 0 115 -113
253 -250z"/>
<path d="M4979 5623 c-1 -10 -2 -184 -3 -386 l-1 -369 664 -664 664 -664 -664
-664 -664 -664 0 -381 c0 -210 3 -381 8 -381 4 0 478 470 1052 1045 l1045
1045 -1050 1050 c-659 659 -1050 1044 -1051 1033z"/>
</g>
</svg>
